<svg xmlns="http://www.w3.org/2000/svg" width="512" height="512" viewBox="0 0 512 512">
  <defs>
    <linearGradient id="bg3" x1="0" y1="0" x2="0" y2="1">
      <stop offset="0%" stop-color="#fff7ed"/>
      <stop offset="100%" stop-color="#fed7aa"/>
    </linearGradient>
    <linearGradient id="cloth" x1="0" y1="0" x2="1" y2="1">
      <stop offset="0%" stop-color="#fb923c"/>
      <stop offset="100%" stop-color="#c2410c"/>
    </linearGradient>
    <pattern id="asanoha" x="0" y="0" width="48" height="48" patternUnits="userSpaceOnUse">
      <path d="M24 0 L48 24 L24 48 L0 24 Z" fill="none" stroke="#ffffff" stroke-width="1.2" opacity="0.35"/>
      <path d="M0 0 L48 48 M48 0 L0 48" stroke="#ffffff" stroke-width="1.2" opacity="0.35"/>
    </pattern>
    <filter id="softShadow3" x="-20%" y="-20%" width="140%" height="140%">
      <feGaussianBlur in="SourceAlpha" stdDeviation="6"/>
      <feOffset dx="0" dy="6" result="off"/>
      <feComponentTransfer><feFuncA type="linear" slope="0.25"/></feComponentTransfer>
      <feMerge><feMergeNode/><feMergeNode in="SourceGraphic"/></feMerge>
    </filter>
  </defs>
  <rect width="512" height="512" rx="110" fill="url(#bg3)"/>
  <g filter="url(#softShadow3)">
    <path d="M120 330 Q 120 200, 256 200 Q 392 200, 392 330 Q 392 420, 256 420 Q 120 420, 120 330 Z" fill="url(#cloth)"/>
    <path d="M120 330 Q 120 200, 256 200 Q 392 200, 392 330 Q 392 420, 256 420 Q 120 420, 120 330 Z" fill="url(#asanoha)"/>
    <path d="M200 208 Q 230 140, 256 170 Q 282 140, 312 208 Q 290 182, 256 190 Q 222 182, 200 208 Z"
          fill="url(#cloth)" stroke="#9a3412" stroke-width="3" stroke-linejoin="round"/>
    <ellipse cx="256" cy="200" rx="40" ry="14" fill="#9a3412" opacity="0.25"/>
  </g>
</svg>
