<svg xmlns="http://www.w3.org/2000/svg" width="512" height="512" viewBox="0 0 512 512">
  <defs>
    <linearGradient id="bgE" x1="0" y1="0" x2="0" y2="1">
      <stop offset="0%" stop-color="#ffffff"/>
      <stop offset="100%" stop-color="#fafaf9"/>
    </linearGradient>
    <filter id="roughE" x="-10%" y="-10%" width="120%" height="120%">
      <feTurbulence type="fractalNoise" baseFrequency="0.8" numOctaves="2" seed="9"/>
      <feColorMatrix values="0 0 0 0 0.1  0 0 0 0 0.08  0 0 0 0 0.07  0 0 0 0.05 0"/>
      <feComposite in2="SourceGraphic" operator="in"/>
    </filter>
    <filter id="inkRough" x="-10%" y="-10%" width="120%" height="120%">
      <feTurbulence type="fractalNoise" baseFrequency="0.02" numOctaves="2" seed="3" result="n"/>
      <feDisplacementMap in="SourceGraphic" in2="n" scale="3"/>
    </filter>
  </defs>

  <rect width="512" height="512" rx="110" fill="url(#bgE)"/>
  <rect width="512" height="512" rx="110" fill="#000" filter="url(#roughE)"/>

  <!-- Parent rabbit (larger, left) -->
  <g transform="translate(192 285)" filter="url(#inkRough)" stroke="#1c1917" stroke-width="4.5" stroke-linecap="round" stroke-linejoin="round" fill="none">
    <!-- left ear -->
    <path d="M -40 -80 C -48 -130, -44 -170, -36 -175 C -28 -172, -26 -140, -24 -95" fill="#ffffff"/>
    <path d="M -38 -92 C -42 -130, -40 -158, -36 -165 C -32 -160, -30 -130, -28 -100" fill="#fbcfe8" stroke="none"/>
    <!-- right ear -->
    <path d="M 8 -82 C 10 -130, 16 -168, 24 -172 C 30 -165, 28 -130, 22 -92" fill="#ffffff"/>
    <path d="M 12 -92 C 14 -128, 18 -155, 22 -160 C 26 -155, 24 -130, 20 -100" fill="#fbcfe8" stroke="none"/>
    <!-- head -->
    <path d="M -46 -60 C -62 -30, -58 10, -30 22 C 0 30, 34 22, 42 -5 C 48 -35, 34 -70, 10 -80 C -18 -88, -38 -78, -46 -60 Z" fill="#ffffff"/>
    <!-- body (rounded back) -->
    <path d="M -72 20 C -82 70, -64 120, -10 128 C 50 130, 80 90, 72 30 C 66 0, 36 -8, 0 -2 C -30 2, -60 0, -72 20 Z" fill="#ffffff"/>
    <!-- tail -->
    <circle cx="18" cy="118" r="16" fill="#ffffff"/>
    <circle cx="18" cy="118" r="16" fill="none"/>
  </g>

  <!-- Child rabbit (smaller, right) -->
  <g transform="translate(340 330)" filter="url(#inkRough)" stroke="#1c1917" stroke-width="4" stroke-linecap="round" stroke-linejoin="round" fill="none">
    <!-- left ear -->
    <path d="M -26 -58 C -32 -92, -28 -118, -22 -122 C -16 -118, -16 -96, -14 -68" fill="#ffffff"/>
    <path d="M -24 -66 C -26 -92, -24 -110, -22 -114 C -20 -110, -18 -92, -17 -72" fill="#fbcfe8" stroke="none"/>
    <!-- right ear -->
    <path d="M 4 -60 C 4 -92, 10 -118, 16 -122 C 22 -118, 18 -96, 14 -70" fill="#ffffff"/>
    <path d="M 6 -66 C 8 -92, 12 -108, 14 -112 C 16 -108, 14 -92, 12 -72" fill="#fbcfe8" stroke="none"/>
    <!-- head -->
    <path d="M -30 -44 C -42 -22, -40 6, -20 16 C 0 22, 24 16, 30 -4 C 34 -26, 22 -50, 4 -56 C -14 -60, -26 -54, -30 -44 Z" fill="#ffffff"/>
    <!-- body -->
    <path d="M -50 14 C -58 50, -46 88, -6 92 C 36 92, 56 62, 50 20 C 44 -2, 24 -8, -2 -4 C -22 -2, -42 -2, -50 14 Z" fill="#ffffff"/>
    <!-- tail -->
    <circle cx="10" cy="84" r="12" fill="#ffffff"/>
    <circle cx="10" cy="84" r="12" fill="none"/>
  </g>

  <!-- small floor line (subtle) -->
  <line x1="100" y1="430" x2="412" y2="430" stroke="#1c1917" stroke-width="1.5" stroke-linecap="round" opacity="0.25"/>

  <!-- Red hanko seal "納" -->
  <g transform="translate(112 128) rotate(-6)">
    <rect x="-54" y="-54" width="108" height="108" rx="7" fill="#991b1b" opacity="0.35" filter="url(#roughE)"/>
    <rect x="-50" y="-50" width="100" height="100" rx="6" fill="#b91c1c"/>
    <rect x="-44" y="-44" width="88" height="88" rx="3" fill="none" stroke="#fef2f2" stroke-width="2.5"/>
    <text x="0" y="20"
          font-family="'Hiragino Mincho ProN','Yu Mincho','Songti SC',serif"
          font-size="82" font-weight="900" fill="#fef2f2" text-anchor="middle">納</text>
  </g>
</svg>
